<svg viewBox="0 -14 512.00001 512" xmlns="http://www.w3.org/2000/svg"><path d="m136.964844 308.234375c4.78125-2.757813 6.417968-8.878906 3.660156-13.660156-2.761719-4.777344-8.878906-6.417969-13.660156-3.660157-4.78125 2.761719-6.421875 8.882813-3.660156 13.660157 2.757812 4.78125 8.878906 6.421875 13.660156 3.660156zm0 0"/><path d="m95.984375 377.253906 50.359375 87.230469c10.867188 18.84375 35.3125 25.820313 54.644531 14.644531 19.128907-11.054687 25.703125-35.496094 14.636719-54.640625l-30-51.96875 25.980469-15c4.78125-2.765625 6.421875-8.878906 3.660156-13.660156l-13.003906-22.523437c1.550781-.300782 11.746093-2.300782 191.539062-37.570313 22.226563-1.207031 35.542969-25.515625 24.316407-44.949219l-33.234376-57.5625 21.238282-32.167968c2.085937-3.164063 2.210937-7.230469.316406-10.511719l-20-34.640625c-1.894531-3.28125-5.492188-5.203125-9.261719-4.980469l-38.472656 2.308594-36.894531-63.90625c-5.34375-9.257813-14.917969-14.863281-25.605469-14.996094-.128906-.003906-.253906-.003906-.382813-.003906-10.328124 0-19.703124 5.140625-25.257812 13.832031l-130.632812 166.414062-84.925782 49.03125c-33.402344 19.277344-44.972656 62.128907-25.621094 95.621094 17.679688 30.625 54.953126 42.671875 86.601563 30zm102.324219 57.238282c5.523437 9.554687 2.253906 21.78125-7.328125 27.316406-9.613281 5.558594-21.855469 2.144531-27.316407-7.320313l-50-86.613281 34.640626-20c57.867187 100.242188 49.074218 85.011719 50.003906 86.617188zm-22.683594-79.296876-10-17.320312 17.320312-10 10 17.320312zm196.582031-235.910156 13.820313 23.9375-12.324219 18.664063-23.820313-41.261719zm-104.917969-72.132812c2.683594-4.390625 6.941407-4.84375 8.667969-4.796875 1.707031.019531 5.960938.550781 8.527344 4.996093l116.3125 201.464844c3.789063 6.558594-.816406 14.804688-8.414063 14.992188-1.363281.03125-1.992187.277344-5.484374.929687l-123.035157-213.105469c2.582031-3.320312 2.914063-3.640624 3.425781-4.480468zm-16.734374 21.433594 115.597656 200.222656-174.460938 34.21875-53.046875-91.878906zm-223.851563 268.667968c-4.390625-7.597656-6.710937-16.222656-6.710937-24.949218 0-17.835938 9.585937-34.445313 25.011718-43.351563l77.941406-45 50 86.601563-77.941406 45.003906c-23.878906 13.78125-54.515625 5.570312-68.300781-18.304688zm0 0"/><path d="m105.984375 314.574219c-2.761719-4.78125-8.878906-6.421875-13.660156-3.660157l-17.320313 10c-4.773437 2.757813-10.902344 1.113282-13.660156-3.660156-2.761719-4.78125-8.878906-6.421875-13.660156-3.660156s-6.421875 8.878906-3.660156 13.660156c8.230468 14.257813 26.589843 19.285156 40.980468 10.980469l17.320313-10c4.78125-2.761719 6.421875-8.875 3.660156-13.660156zm0 0"/><path d="m497.136719 43.746094-55.722657 31.007812c-4.824218 2.6875-6.5625 8.777344-3.875 13.601563 2.679688 4.820312 8.765626 6.566406 13.601563 3.875l55.71875-31.007813c4.828125-2.6875 6.5625-8.777344 3.875-13.601562-2.683594-4.828125-8.773437-6.5625-13.597656-3.875zm0 0"/><path d="m491.292969 147.316406-38.636719-10.351562c-5.335938-1.429688-10.820312 1.734375-12.25 7.070312-1.429688 5.335938 1.738281 10.816406 7.074219 12.246094l38.640625 10.351562c5.367187 1.441407 10.824218-1.773437 12.246094-7.070312 1.429687-5.335938-1.738282-10.820312-7.074219-12.246094zm0 0"/><path d="m394.199219 7.414062-10.363281 38.640626c-1.429688 5.335937 1.734374 10.816406 7.070312 12.25 5.332031 1.425781 10.816406-1.730469 12.25-7.070313l10.359375-38.640625c1.429687-5.335938-1.734375-10.820312-7.070313-12.25-5.332031-1.429688-10.816406 1.734375-12.246093 7.070312zm0 0"/></svg>